<svg version="1.1" xmlns="http://www.w3.org/2000/svg" style="display: block;" viewBox="0 0 1600 1600" width="400" height="400" preserveAspectRatio="none">
<path transform="translate(0,0)" fill="rgb(254,228,0)" d="M 426.332 1181.43 C 425.879 1179.47 425.492 1177.51 425.17 1175.53 C 423.65 1166.02 424.353 1134.25 424.368 1122.79 L 424.423 1019.62 L 424.394 782.191 C 424.394 756.409 424.128 728.871 424.924 703.172 C 425.095 697.662 465.763 658.657 470.783 653.692 L 537.537 587.058 L 676.202 448.42 C 695.57 429.131 714.765 409.521 734.122 390.236 C 736.914 387.454 747.224 378.788 751.059 378.489 C 768.239 377.153 786.666 377.76 804.022 377.79 L 897.168 377.891 C 1007.49 377.911 1120.35 379.06 1230.5 377.421 C 1212.22 393.292 1185.2 422.62 1166.94 440.629 L 1000.32 607.318 L 871.061 736.466 C 865.133 742.407 833.078 773.053 830.26 778.314 C 837.743 788.544 855.869 806.609 865.235 816.139 C 883.827 835.058 902.934 854.907 921.901 873.377 C 986.154 937.737 1049.94 1002.56 1113.25 1067.84 C 1150.25 1105.26 1190.66 1143.95 1226.58 1181.96 C 1207.68 1179.8 1155.52 1181.11 1134.76 1181.13 L 954.636 1181.16 L 603.273 1181.14 C 545.903 1181.14 485.553 1180.18 428.409 1181.11 L 426.332 1181.43 z"/>
<path transform="translate(0,0)" fill="rgb(112,114,115)" d="M 426.332 1181.43 C 429.188 1177.03 453.75 1154.06 458.914 1148.88 L 568.736 1038.98 L 751.621 856.132 L 802.165 805.463 C 808.91 798.697 823.404 783.423 830.26 778.314 C 837.743 788.544 855.869 806.609 865.235 816.139 C 883.827 835.058 902.934 854.907 921.901 873.377 C 986.154 937.737 1049.94 1002.56 1113.25 1067.84 C 1150.25 1105.26 1190.66 1143.95 1226.58 1181.96 C 1207.68 1179.8 1155.52 1181.11 1134.76 1181.13 L 954.636 1181.16 L 603.273 1181.14 C 545.903 1181.14 485.553 1180.18 428.409 1181.11 L 426.332 1181.43 z"/>
<path transform="translate(0,0)" fill="rgb(48,48,48)" d="M 426.332 1181.43 C 429.188 1177.03 453.75 1154.06 458.914 1148.88 L 568.736 1038.98 L 751.621 856.132 L 802.165 805.463 C 808.91 798.697 823.404 783.423 830.26 778.314 C 837.743 788.544 855.869 806.609 865.235 816.139 C 883.827 835.058 902.934 854.907 921.901 873.377 C 914.672 882.262 833.163 929.925 817.254 939.792 C 694.455 1016.28 571.243 1092.11 447.624 1167.27 C 439.589 1172.21 433.93 1179.87 428.409 1181.11 L 426.332 1181.43 z"/>
</svg>
