<svg version="1.1" xmlns="http://www.w3.org/2000/svg" style="display: block;" viewBox="0 0 2048 2048" width="512" height="512" preserveAspectRatio="none">
<path transform="translate(0,0)" fill="rgb(254,227,2)" d="M 427.022 1619.2 C 423.419 1580.53 425.63 1520.74 425.686 1480.82 L 425.611 1239.07 L 425.6 1019.91 L 425.539 955.31 C 425.492 938.856 425.203 917.956 427.005 901.743 C 432.602 892.78 451.875 874.827 460.175 866.518 L 523.824 802.977 L 801.428 525.505 L 864.052 462.549 C 875.087 451.303 886.93 438.331 898.851 428.2 C 904.621 423.295 913.406 423.253 921.016 423.196 C 972.008 422.815 1023.32 423.023 1074.31 423.024 L 1371.74 423.052 L 1526.1 422.975 C 1551.78 422.926 1599.42 421.767 1623.18 425.376 C 1616.15 430.644 1605.19 442.714 1598.37 449.356 L 1545.03 501.548 L 1389.82 656.679 L 1181.97 864.675 C 1130.99 915.262 1074.28 970.098 1025.98 1022.72 L 1026.67 1023.26 C 1030.55 1026.22 1037.59 1029.53 1040.56 1032.35 C 1072.35 1062.64 1100.82 1096.34 1132.42 1126.88 C 1143.21 1137.31 1154.32 1148.09 1164.3 1159.21 C 1198.38 1190.8 1230.53 1225.05 1263.22 1258.06 L 1442.87 1440.21 L 1537.35 1535.9 C 1564.27 1562.69 1593.83 1590.5 1617.6 1619.79 C 1551.51 1622.12 1478.26 1620.75 1411.6 1620.78 L 1053.42 1620.8 L 668.474 1620.56 C 593.089 1620.54 514.996 1622.04 439.888 1619.75 L 427.022 1619.2 z"/>
<path transform="translate(0,0)" fill="rgb(254,254,254)" d="M 514.022 1560.34 C 522.302 1556.54 532.188 1550.65 540.409 1546.28 C 560.852 1535.65 580.906 1524.3 600.534 1512.23 C 620.065 1500.11 639.291 1486.89 658.879 1474.99 C 750.083 1419.82 840.877 1363.97 931.254 1307.45 L 1068.19 1222.32 C 1089.86 1208.94 1148.95 1176.02 1164.3 1159.21 C 1198.38 1190.8 1230.53 1225.05 1263.22 1258.06 L 1442.87 1440.21 L 1537.35 1535.9 C 1564.27 1562.69 1593.83 1590.5 1617.6 1619.79 C 1551.51 1622.12 1478.26 1620.75 1411.6 1620.78 L 1053.42 1620.8 L 668.474 1620.56 C 593.089 1620.54 514.996 1622.04 439.888 1619.75 C 440.925 1615.53 446.415 1610.46 449.549 1605.52 C 459.411 1595.65 465.567 1591.84 477.12 1584.1 C 489.51 1576.32 501.812 1568.4 514.022 1560.34 z"/>
<path transform="translate(0,0)" fill="rgb(113,113,116)" d="M 501.591 1551.32 C 502.789 1549.3 517.571 1533.04 519.95 1530.39 C 535.055 1513.54 550.245 1496.13 566.462 1480.37 C 579.342 1467.85 593.858 1456.49 606.477 1443.62 L 928.129 1119.91 C 942.227 1105.71 957.838 1092.43 971.594 1078.07 C 989.46 1059.4 1008.18 1041.35 1025.98 1022.72 L 1026.67 1023.26 C 1030.55 1026.22 1037.59 1029.53 1040.56 1032.35 C 1072.35 1062.64 1100.82 1096.34 1132.42 1126.88 C 1143.21 1137.31 1154.32 1148.09 1164.3 1159.21 C 1148.95 1176.02 1089.86 1208.94 1068.19 1222.32 L 931.254 1307.45 C 840.877 1363.97 750.083 1419.82 658.879 1474.99 C 639.291 1486.89 620.065 1500.11 600.534 1512.23 C 580.906 1524.3 560.852 1535.65 540.409 1546.28 C 532.188 1550.65 522.302 1556.54 514.022 1560.34 L 513.646 1558.96 C 511.372 1558.96 505.381 1563.7 503.018 1565.4 C 500.555 1564.12 500.749 1564.01 499.219 1561.62 C 499.013 1557.13 500.902 1557.21 502.244 1553.2 L 501.591 1551.32 z"/>
<path transform="translate(0,0)" fill="rgb(60,59,59)" d="M 501.591 1551.32 L 502.244 1553.2 C 500.902 1557.21 499.013 1557.13 499.219 1561.62 C 500.749 1564.01 500.555 1564.12 503.018 1565.4 C 505.381 1563.7 511.372 1558.96 513.646 1558.96 L 514.022 1560.34 C 501.812 1568.4 489.51 1576.32 477.12 1584.1 L 474.648 1577.68 C 478.223 1573.38 496.268 1556.64 501.591 1551.32 z"/>
<path transform="translate(0,0)" fill="rgb(29,29,29)" d="M 474.648 1577.68 L 477.12 1584.1 C 465.567 1591.84 459.411 1595.65 449.549 1605.52 C 450.809 1597.68 468.237 1583.43 474.648 1577.68 z"/>
</svg>
